<?xml version="1.0" encoding="windows-1252"?>
<!-- Generator: Adobe Illustrator 19.0.0, SVG Export Plug-In . SVG Version: 6.00 Build 0)  -->
<svg version="1.1" id="Layer_1" xmlns="http://www.w3.org/2000/svg" xmlns:xlink="http://www.w3.org/1999/xlink" x="0px" y="0px" viewBox="0 0 384 384" style="enable-background:new 0 0 384 384;" xml:space="preserve">
<g>
	<g>
		<path d="M320,53.333c-7.875,0-15.26,2.146-21.604,5.885C296.01,37.927,277.906,21.333,256,21.333    c-8.781,0-16.938,2.667-23.729,7.219C226.427,11.948,210.583,0,192,0s-34.427,11.948-40.271,28.552    C144.937,24,136.781,21.333,128,21.333c-23.531,0-42.667,19.135-42.667,42.667v38.25l-35.885,35.885    c-18.125,18.125-28.115,42.229-28.115,67.875c0,98.146,79.844,177.99,177.99,177.99H224c76.458,0,138.667-62.208,138.667-138.667    V96C362.667,72.469,343.531,53.333,320,53.333z M341.333,245.333c0,64.698-52.635,117.333-117.333,117.333h-24.677    c-86.385,0-156.656-70.271-156.656-156.656c0-19.938,7.76-38.688,21.865-52.792l20.802-20.802v38.25    c0,5.896,4.771,10.667,10.667,10.667s10.667-4.771,10.667-10.667v-63.969c0-0.021,0-0.042,0-0.063V64    c0-11.76,9.573-21.333,21.333-21.333S149.333,52.24,149.333,64v10.667c0,5.896,4.771,10.667,10.667,10.667    s10.667-4.771,10.667-10.667v-32c0-11.76,9.573-21.333,21.333-21.333s21.333,9.573,21.333,21.333v32    c0,5.896,4.771,10.667,10.667,10.667s10.667-4.771,10.667-10.667V64c0-11.76,9.573-21.333,21.333-21.333S277.333,52.24,277.333,64    v42.667c0,5.896,4.771,10.667,10.667,10.667c5.896,0,10.667-4.771,10.667-10.667V96c0-11.76,9.573-21.333,21.333-21.333    c11.76,0,21.333,9.573,21.333,21.333V245.333z"/>
	</g>
</g>
<g>
</g>
<g>
</g>
<g>
</g>
<g>
</g>
<g>
</g>
<g>
</g>
<g>
</g>
<g>
</g>
<g>
</g>
<g>
</g>
<g>
</g>
<g>
</g>
<g>
</g>
<g>
</g>
<g>
</g>
</svg>