<svg xmlns:dc="http://purl.org/dc/elements/1.1/" xmlns:cc="http://creativecommons.org/ns#" xmlns:rdf="http://www.w3.org/1999/02/22-rdf-syntax-ns#" xmlns:svg="http://www.w3.org/2000/svg" xmlns="http://www.w3.org/2000/svg" xmlns:sodipodi="http://sodipodi.sourceforge.net/DTD/sodipodi-0.dtd" xmlns:inkscape="http://www.inkscape.org/namespaces/inkscape" version="1.1" xml:space="preserve" width="1484.666666507721" height="271.66666626930237" sodipodi:docname="loreal-logo.svg" inkscape:version="0.92.2 (5c3e80d, 2017-08-06)" style=""><rect id="backgroundrect" width="100%" height="100%" x="0" y="0" fill="none" stroke="none" style="" class=""/><metadata id="metadata8"><rdf:RDF><cc:Work rdf:about=""><dc:format>image/svg+xml</dc:format><dc:type rdf:resource="http://purl.org/dc/dcmitype/StillImage"/><dc:title/></cc:Work></rdf:RDF></metadata><defs id="defs6"><clipPath clipPathUnits="userSpaceOnUse" id="clipPath18"><path d="M 0.06,864.567 H 623.622 V 0 H 0.06 Z" id="path16" inkscape:connector-curvature="0"/></clipPath></defs><sodipodi:namedview pagecolor="#ffffff" bordercolor="#666666" borderopacity="1" objecttolerance="10" gridtolerance="10" guidetolerance="10" inkscape:pageopacity="0" inkscape:pageshadow="2" inkscape:window-width="1920" inkscape:window-height="1017" id="namedview4" showgrid="false" inkscape:zoom="0.10236338" inkscape:cx="233.07887" inkscape:cy="1625.7162" inkscape:window-x="-8" inkscape:window-y="-8" inkscape:window-maximized="1" inkscape:current-layer="g10"/><g class="currentLayer" style=""><title>Layer 1</title><g id="g10" inkscape:groupmode="layer" inkscape:label="loreal-logo" class=""><g id="g22" style="fill:#000000" stroke-width="0"><path d="M805.883056640625,251.32304894924164 H995.405029296875 V228.18306481838226 H838.371337890625 v-74.08171844482422 h117.95559692382812 v-23.421859741210938 H838.371337890625 v-68.25171661376953 h157.0338134765625 V39.358670592308044 H805.883056640625 " style="fill:#000000;fill-opacity:1;fill-rule:nonzero;stroke:none" id="path24" inkscape:connector-curvature="0" stroke-width="0"/></g><g id="g26" style="fill:#000000" stroke-width="0"><path d="M904.3662109375,5.099532961845398 L878.711181640625,33.92824304103851 L959.265380859375,5.099532961845398 " style="fill:#000000;fill-opacity:1;fill-rule:nonzero;stroke:none" id="path28" inkscape:connector-curvature="0" stroke-width="0"/></g><g id="g30" style="fill:#000000" stroke-width="0"><path d="M1313.57958984375,228.18294274806976 V39.366361021995544 H1283.95947265625 V251.32292687892914 H1475.557861328125 V228.18294274806976 " style="fill:#000000;fill-opacity:1;fill-rule:nonzero;stroke:none" id="path32" inkscape:connector-curvature="0" stroke-width="0"/></g><g id="g34" style="fill:#000000" stroke-width="0"><path d="m1118.2197265625,39.358548521995544 l-107.77659606933594,211.96429443359375 h36.42181396484375 l27.58278465270996,-54.859962463378906 h129.255126953125 l27.81786346435547,54.859962463378906 H1267.57421875 L1159.70361328125,39.358548521995544 zm-30.137327194213867,130.54022216796875 l50.78523635864258,-101.24919128417969 l51.388607025146484,101.24919128417969 " style="fill:#000000;fill-opacity:1;fill-rule:nonzero;stroke:none" id="path36" inkscape:connector-curvature="0" stroke-width="0"/></g><g id="g38" style="fill:#000000" stroke-width="0"><path d="m703.043212890625,162.69746911525726 c48.55980682373047,-12.960774421691895 53.2770881652832,-49.100486755371094 53.03417205810547,-62.006412506103516 c-2.899326801300049,-37.87147903442383 -28.405567169189453,-61.332515716552734 -74.25411224365234,-61.332515716552734 h-133.5962677001953 v211.96429443359375 h30.45076560974121 V162.40755212306976 H665.64990234375 L729.630859375,251.32304894924164 h38.39649200439453 c0,0 -46.0444450378418,-59.84366989135742 -64.98410034179688,-88.62537384033203 m-25.38869857788086,-25.33384895324707 h-98.97674560546875 v-72.91415405273438 h102.44026947021484 c23.570743560791016,0 36.8449592590332,11.009605407714844 41.61709213256836,24.996898651123047 C725.89306640625,99.02986657619476 723.871337890625,111.61452996730804 718.644775390625,120.18712365627289 C710.080078125,134.35457360744476 693.8203125,137.36360681056976 677.654541015625,137.36360681056976 " style="fill:#000000;fill-opacity:1;fill-rule:nonzero;stroke:none" id="path40" inkscape:connector-curvature="0" stroke-width="0"/></g><g id="g42" style="fill:#000000" stroke-width="0"><path d="m365.2015380859375,3.4774621725082397 c-85.96112060546875,0 -144.55886840820312,60.61160659790039 -144.55886840820312,133.97239685058594 c0,77.23179626464844 64.73334503173828,131.75479125976562 144.55886840820312,131.75479125976562 c79.78633880615234,0 144.4883270263672,-53.73941421508789 144.4883270263672,-131.75479125976562 C509.68975830078125,64.08907067775726 450.3714599609375,3.4774621725082397 365.2015380859375,3.4774621725082397 m-1.0265183448791504,239.4138641357422 c-59.475379943847656,0 -108.4818344116211,-47.791873931884766 -108.4818344116211,-105.37093353271484 c0,-57.500701904296875 46.6870002746582,-107.5885238647461 110.7856216430664,-107.5885238647461 c62.50791549682617,0 108.45832824707031,50.087833404541016 108.45832824707031,107.5885238647461 c0,57.57905960083008 -51.30241012573242,105.37093353271484 -110.76212310791016,105.37093353271484 " style="fill:#000000;fill-opacity:1;fill-rule:nonzero;stroke:none" id="path44" inkscape:connector-curvature="0" stroke-width="0"/></g><g id="g46" style="fill:#000000" stroke-width="0"><path d="M143.94354248046875,114.34132897853851 H165.90789794921875 L205.80120849609375,39.358548521995544 H173.70477294921875 " style="fill:#000000;fill-opacity:1;fill-rule:nonzero;stroke:none" id="path48" inkscape:connector-curvature="0" stroke-width="0"/></g><g id="g50" style="fill:#000000" stroke-width="0"><path d="M36.51194763183594,228.18294274806976 V39.366361021995544 H6.876223087310791 V251.32292687892914 H198.45892333984375 V228.18294274806976 " style="fill:#000000;fill-opacity:1;fill-rule:nonzero;stroke:none" id="path52" inkscape:connector-curvature="0" stroke-width="0"/></g></g></g></svg>